PathFileType	4	(X/Y/Z)	/Users/itak/Documents/Research/Walk-IL/dataset/trc/00388_00012.trc
DataRate	CameraRate	NumFrames	NumMarkers	Units	OrigDataRate	OrigDataStartFrame	OrigNumFrames
100.000000	100.000000	4	53	mm	100.000000	228	610
Frame#	Time	RPSI			LPSI			L3			STRN			T10			C7			CLAV			RBAK			LBAK			LSHO			LUPA			LAEL			LAOL			LWTS			LWPS			LFRA			LIFD			LHPS			LHTS			RSHO			RUPA			RAEL			RAOL			RWTS			RWPS			RFRA			RIFD			RHTS			RHPS			RBHD			LFHD			RFHD			LBHD			LHIP			RHIP			RASI			LKNE			LTHI			LANK			LTIP			LTOE			LMT5			LHEE			RKNE			RTHI			RANK			RTIP			RTOE			RMT1			RMT5			RHEE			LASI			LMT1			
		X1	Y1	Z1	X2	Y2	Z2	X3	Y3	Z3	X4	Y4	Z4	X5	Y5	Z5	X6	Y6	Z6	X7	Y7	Z7	X8	Y8	Z8	X9	Y9	Z9	X10	Y10	Z10	X11	Y11	Z11	X12	Y12	Z12	X13	Y13	Z13	X14	Y14	Z14	X15	Y15	Z15	X16	Y16	Z16	X17	Y17	Z17	X18	Y18	Z18	X19	Y19	Z19	X20	Y20	Z20	X21	Y21	Z21	X22	Y22	Z22	X23	Y23	Z23	X24	Y24	Z24	X25	Y25	Z25	X26	Y26	Z26	X27	Y27	Z27	X28	Y28	Z28	X29	Y29	Z29	X30	Y30	Z30	X31	Y31	Z31	X32	Y32	Z32	X33	Y33	Z33	X34	Y34	Z34	X35	Y35	Z35	X36	Y36	Z36	X37	Y37	Z37	X38	Y38	Z38	X39	Y39	Z39	X40	Y40	Z40	X41	Y41	Z41	X42	Y42	Z42	X43	Y43	Z43	X44	Y44	Z44	X45	Y45	Z45	X46	Y46	Z46	X47	Y47	Z47	X48	Y48	Z48	X49	Y49	Z49	X50	Y50	Z50	X51	Y51	Z51	X52	Y52	Z52	X53	Y53	Z53	

229	2.28	858.5109252929688	977.7218017578125	4.499603748321533	844.5977172851562	969.7295532226562	-128.2427215576172	855.7545776367188	1051.572631835938	-53.2143440246582	1095.036499023438	1214.047729492188	-56.08387756347656	850.7344360351562	1153.650146484375	-52.16254806518555	876.7804565429688	1403.989990234375	-54.91301727294922	1037.138916015625	1330.994750976562	-53.53295516967773	844.0086669921875	1254.514892578125	11.63954448699951	861.9778442382812	1367.466674804688	-159.4500732421875	949.2500610351562	1385.24267578125	-210.968017578125	936.000244140625	1268.687133789062	-282.1066284179688	982.9771118164062	1075.162475585938	-305.1253967285156	914.1795654296875	1047.597290039062	-262.1958923339844	1087.261840820312	873.0596313476562	-229.8329467773438	1063.875854492188	854.1067504882812	-306.5447998046875	1017.648254394531	973.9002685546875	-308.8703002929688	1117.736083984375	697.8937377929688	-233.6120300292969	1089.026123046875	773.1873168945312	-294.7836303710938	1127.103271484375	782.9380493164062	-243.6067962646484	942.2807006835938	1382.452514648438	103.215934753418	937.2081298828125	1315.455200195312	162.7385559082031	964.3886108398438	1054.1708984375	196.0036010742188	937.860595703125	1043.24609375	105.7010116577148	1107.584350585938	851.9171752929688	159.0307006835938	1068.522216796875	836.2449340820312	219.7960968017578	995.45556640625	990.9032592773438	209.1074371337891	1128.390258789062	680.6207885742188	162.5500183105469	1138.785034179688	751.1430053710938	178.8870239257812	1082.564453125	747.9411010742188	218.896240234375	918.0188598632812	1598.932495117188	22.89769744873047	1057.156372070312	1596.406860351562	-119.637580871582	1050.46240234375	1607.597412109375	3.015943050384521	909.4078369140625	1582.59814453125	-137.4699249267578	928.8334350585938	967.1226806640625	-244.571044921875	949.0025024414062	951.7467651367188	114.3421478271484	1078.035766601562	963.9190063476562	54.54416275024414	1062.270385742188	480.7000427246094	-233.9066467285156	1028.029418945312	616.9027709960938	-244.6239929199219	945.3650512695312	36.45844268798828	-216.4050750732422	999.077392578125	252.5581512451172	-239.1080474853516	1153.819946289062	61.94175720214844	-153.8079528808594	1072.3134765625	35.28659439086914	-225.2943420410156	906.130859375	38.69955444335938	-160.3529052734375	1008.6357421875	464.4329528808594	80.68074035644531	1033.790283203125	729.703369140625	103.3316116333008	995.1769409179688	45.70960998535156	25.59092140197754	1027.380615234375	341.2500305175781	58.56637954711914	1174.777099609375	26.37912750244141	-39.98575592041016	1097.901000976562	31.1253547668457	-69.77156829833984	1079.967041015625	39.7666130065918	26.4845027923584	921.172607421875	31.5234317779541	-26.69053840637207	1046.303344726562	968.1220092773438	-205.5263519287109	1077.236206054688	54.51137924194336	-121.9714126586914	
230	2.29	855.3047485351562	977.6030883789062	5.07761812210083	841.0214233398438	969.580810546875	-127.7137145996094	852.1968994140625	1051.656616210938	-52.67453002929688	1091.983520507812	1214.0205078125	-55.90850830078125	847.579345703125	1153.696655273438	-51.48646545410156	873.6376342773438	1404.0224609375	-54.26015090942383	1033.990844726562	1330.880004882812	-53.06736373901367	840.9688110351562	1254.447631835938	12.23493671417236	858.7060546875	1367.580444335938	-158.7750244140625	945.8938598632812	1385.336303710938	-210.4028625488281	932.364501953125	1268.822998046875	-281.5862121582031	979.0556640625	1075.236083984375	-304.7748413085938	910.3801879882812	1047.730102539062	-261.6322326660156	1083.565795898438	873.2487182617188	-229.8226165771484	1059.80322265625	854.164794921875	-306.3461608886719	1013.627319335938	973.9432983398438	-308.5862121582031	1114.218994140625	698.1177978515625	-233.6289672851562	1085.044189453125	773.279541015625	-294.6378479003906	1123.425415039062	783.1217651367188	-243.7085571289062	939.356201171875	1382.31396484375	103.7604446411133	934.3359375	1315.258178710938	163.2278900146484	961.861572265625	1054.143432617188	196.9313049316406	935.4638061523438	1042.943725585938	106.601806640625	1105.476806640625	852.3106689453125	160.4720306396484	1066.38037109375	836.59130859375	221.204345703125	992.97021484375	990.9506225585938	210.2444305419922	1126.902954101562	681.1303100585938	164.3782501220703	1136.96630859375	751.6983642578125	180.5801086425781	1080.746459960938	748.3719482421875	220.4871215820312	914.55419921875	1598.53955078125	23.9273509979248	1053.301635742188	1596.886840820312	-118.9555587768555	1046.871215820312	1607.829467773438	3.702859163284302	905.5850219726562	1582.449096679688	-136.4853210449219	925.0828247070312	967.1422119140625	-244.2093200683594	945.9263916015625	951.5726318359375	114.6944808959961	1074.95849609375	963.8141479492188	54.59039688110352	1059.533569335938	481.0580139160156	-233.6237487792969	1024.967163085938	617.0028076171875	-244.2463226318359	939.4521484375	37.18148803710938	-216.7186279296875	994.3588256835938	253.314697265625	-239.28369140625	1147.949584960938	63.75348281860352	-155.1911468505859	1066.328735351562	36.31043243408203	-226.2544860839844	900.4590454101562	39.19823455810547	-160.4531707763672	1007.204833984375	464.3943786621094	80.79632568359375	1031.26806640625	729.703857421875	103.5678329467773	995.2009887695312	45.75350189208984	25.54024505615234	1026.409423828125	341.3041076660156	58.59588241577148	1174.8203125	26.39289665222168	-39.96364212036133	1097.901733398438	31.08200454711914	-69.81015777587891	1079.9609375	39.75834655761719	26.46256446838379	921.1931762695312	31.46689796447754	-26.70518112182617	1042.635375976562	968.1965942382812	-205.3191070556641	1071.75830078125	55.67038345336914	-122.8999557495117	
231	2.3	851.9605102539062	977.4050903320312	5.582119464874268	837.3560791015625	969.3922729492188	-127.2430191040039	848.5166625976562	1051.763549804688	-52.19660568237305	1088.7958984375	1214.032470703125	-55.74411392211914	844.289794921875	1153.746948242188	-50.90389633178711	870.3532104492188	1404.072265625	-53.72265243530273	1030.685180664062	1330.791015625	-52.63897705078125	837.7808837890625	1254.390747070312	12.72572898864746	855.33740234375	1367.706176757812	-158.2190246582031	942.4628295898438	1385.435424804688	-209.9150390625	928.7211303710938	1268.969604492188	-281.15185546875	975.096923828125	1075.323608398438	-304.488037109375	906.5429077148438	1047.877807617188	-261.1524047851562	1079.85107421875	873.427734375	-230.0012359619141	1055.524536132812	854.1536865234375	-306.2655334472656	1009.523010253906	973.98974609375	-308.3809204101562	1110.600952148438	698.386962890625	-233.7714233398438	1080.811889648438	773.2891845703125	-294.5805358886719	1119.6376953125	783.26025390625	-244.0173187255859	936.2080688476562	1382.208862304688	104.2146530151367	931.2028198242188	1315.089233398438	163.6356811523438	959.1060180664062	1054.145263671875	197.7641143798828	932.8281860351562	1042.6806640625	107.3997039794922	1103.209594726562	852.755615234375	161.9447784423828	1064.027099609375	836.9835815429688	222.6051635742188	990.2665405273438	991.0369873046875	211.2940979003906	1125.30908203125	681.7201538085938	166.2769470214844	1134.994018554688	752.3096313476562	182.3498229980469	1078.668212890625	748.8346557617188	222.0497894287109	910.9417114257812	1598.14013671875	24.88431167602539	1049.3486328125	1597.371704101562	-118.2879943847656	1043.143188476562	1608.057250976562	4.373058795928955	901.6693725585938	1582.319091796875	-135.572998046875	921.2765502929688	967.17431640625	-243.8906097412109	942.7346801757812	951.3781127929688	115.0147476196289	1071.76708984375	963.7538452148438	54.64392471313477	1056.71923828125	481.3901062011719	-233.2936706542969	1021.928527832031	617.12548828125	-243.7917633056641	931.9974365234375	38.41930389404297	-216.7942047119141	988.84326171875	254.2430114746094	-239.2954559326172	1140.814086914062	65.06678771972656	-156.7187042236328	1058.77880859375	37.47556304931641	-227.2347259521484	893.395263671875	40.24704742431641	-160.2445373535156	1005.8876953125	464.3693237304688	80.78302764892578	1028.7099609375	729.6693725585938	103.7992706298828	995.2356567382812	45.81314849853516	25.46192169189453	1025.5302734375	341.3663940429688	58.49307632446289	1174.86328125	26.40496253967285	-39.97035598754883	1097.899169921875	31.00298690795898	-69.88005065917969	1079.954711914062	39.76256561279297	26.42880249023438	921.224609375	31.41501617431641	-26.7280387878418	1038.915405273438	968.3201293945312	-205.1177825927734	1065.013671875	56.65055847167969	-123.855094909668	
232	2.31	848.4887084960938	977.123779296875	6.019275188446045	833.5935668945312	969.1600952148438	-126.829719543457	844.743408203125	1051.883544921875	-51.7734260559082	1085.459716796875	1214.08203125	-55.58391189575195	840.857666015625	1153.796264648438	-50.42027282714844	866.91357421875	1404.128662109375	-53.29730606079102	1027.216430664062	1330.735595703125	-52.2518196105957	834.427001953125	1254.34326171875	13.11540794372559	851.8565063476562	1367.839233398438	-157.7786254882812	938.9450073242188	1385.544677734375	-209.5028839111328	925.062744140625	1269.13037109375	-280.8030700683594	971.0983276367188	1075.428955078125	-304.262451171875	902.6577758789062	1048.045288085938	-260.7531127929688	1076.1298828125	873.6050415039062	-230.3551483154297	1051.058715820312	854.0846557617188	-306.2962646484375	1005.343933105469	974.0486450195312	-308.2530822753906	1106.904541015625	698.695556640625	-234.0255584716797	1076.359497070312	773.22998046875	-294.6068420410156	1115.765258789062	783.3736572265625	-244.5238494873047	932.8223876953125	1382.138916015625	104.5770645141602	927.7884521484375	1314.96044921875	163.9621734619141	956.1097412109375	1054.185546875	198.5069580078125	929.9664916992188	1042.468627929688	108.0989608764648	1100.765380859375	853.258056640625	163.4496612548828	1061.440063476562	837.42724609375	223.9927062988281	987.3291015625	991.1737670898438	212.2557525634766	1123.567993164062	682.3866577148438	168.2324066162109	1132.847900390625	752.9816284179688	184.1914520263672	1076.3125	749.3336791992188	223.5795745849609	907.1798706054688	1597.737670898438	25.76268768310547	1045.299560546875	1597.851684570312	-117.6409606933594	1039.2822265625	1608.270263671875	5.025703430175781	897.6619873046875	1582.211059570312	-134.7330627441406	917.4171752929688	967.21533203125	-243.6095733642578	939.4573364257812	951.1727294921875	115.3139038085938	1068.4580078125	963.7410888671875	54.7133903503418	1053.853637695312	481.6814575195312	-232.9353179931641	1018.953063964844	617.2745971679688	-243.2621459960938	922.9229736328125	40.24078369140625	-216.6138305664062	982.5113525390625	255.3808288574219	-239.1457824707031	1132.309936523438	65.905517578125	-158.3492889404297	1049.571166992188	38.78797912597656	-228.1971893310547	884.8458251953125	41.95381164550781	-159.7205963134766	1004.698486328125	464.3589782714844	80.63748168945312	1026.142822265625	729.6244506835938	104.0127029418945	995.2775268554688	45.88243865966797	25.35463333129883	1024.762817382812	341.4342651367188	58.25340270996094	1174.908935546875	26.41751670837402	-40.01431655883789	1097.894165039062	30.88174629211426	-69.98760223388672	1079.9521484375	39.78341293334961	26.38065719604492	921.271240234375	31.36713790893555	-26.75893592834473	1035.13818359375	968.48046875	-204.9185028076172	1056.889404296875	57.47293472290039	-124.7914428710938	
